<?xml version="1.0" encoding="UTF-8"?>
<svg width="510px" height="510px" viewBox="0 0 510 510" version="1.1" xmlns="http://www.w3.org/2000/svg" xmlns:xlink="http://www.w3.org/1999/xlink">
    <!-- Generator: Sketch 52.6 (67491) - http://www.bohemiancoding.com/sketch -->
    <title>Untitled 3</title>
    <desc>Created with Sketch.</desc>
    <g id="Page-1" stroke="none" stroke-width="1" fill="none" fill-rule="evenodd">
        <g id="tumblr" fill="#777777" fill-rule="nonzero">
            <path d="M459,0 L51,0 C22.95,0 0,22.95 0,51 L0,459 C0,487.05 22.95,510 51,510 L459,510 C487.05,510 510,487.05 510,459 L510,51 C510,22.95 487.05,0 459,0 Z M357,229.5 L280.5,229.5 C280.5,229.5 280.5,326.4 280.5,328.95 C280.5,346.8 283.05,357 308.55,357 C331.5,357 357,357 357,357 L357,433.5 C357,433.5 331.5,436.05 303.45,436.05 C237.15,436.05 204,395.25 204,349.35 C204,318.75 204,229.5 204,229.5 L153,229.5 L153,158.1 C214.2,153 219.3,107.1 224.4,76.5 L280.5,76.5 L280.5,153 L357,153 L357,229.5 Z" id="Shape"></path>
        </g>
    </g>
</svg>